<svg width="121" height="25" viewBox="0 0 121 25" fill="none" xmlns="http://www.w3.org/2000/svg">
<path d="M12.376 24.32C10.1147 24.32 8.06667 23.8293 6.232 22.848C4.41867 21.8453 2.98933 20.4693 1.944 18.72C0.92 16.9707 0.408 14.9973 0.408 12.8C0.408 10.6027 0.930667 8.62933 1.976 6.88C3.02133 5.13067 4.45067 3.76533 6.264 2.784C8.09867 1.78133 10.1467 1.28 12.408 1.28C14.2427 1.28 15.9173 1.6 17.432 2.24C18.9467 2.88 20.2267 3.808 21.272 5.024L18.584 7.552C16.9627 5.80267 14.968 4.928 12.6 4.928C11.064 4.928 9.688 5.26933 8.472 5.952C7.256 6.61333 6.30667 7.54133 5.624 8.736C4.94133 9.93067 4.6 11.2853 4.6 12.8C4.6 14.3147 4.94133 15.6693 5.624 16.864C6.30667 18.0587 7.256 18.9973 8.472 19.68C9.688 20.3413 11.064 20.672 12.6 20.672C14.968 20.672 16.9627 19.7867 18.584 18.016L21.272 20.576C20.2267 21.792 18.936 22.72 17.4 23.36C15.8853 24 14.2107 24.32 12.376 24.32ZM31.929 24.224C30.201 24.224 28.6437 23.8507 27.257 23.104C25.8703 22.3573 24.7823 21.3227 23.993 20C23.225 18.656 22.841 17.1413 22.841 15.456C22.841 13.7707 23.225 12.2667 23.993 10.944C24.7823 9.62133 25.8703 8.58667 27.257 7.84C28.6437 7.09333 30.201 6.72 31.929 6.72C33.6783 6.72 35.2463 7.09333 36.633 7.84C38.0197 8.58667 39.097 9.62133 39.865 10.944C40.6543 12.2667 41.049 13.7707 41.049 15.456C41.049 17.1413 40.6543 18.656 39.865 20C39.097 21.3227 38.0197 22.3573 36.633 23.104C35.2463 23.8507 33.6783 24.224 31.929 24.224ZM31.929 20.8C33.401 20.8 34.617 20.3093 35.577 19.328C36.537 18.3467 37.017 17.056 37.017 15.456C37.017 13.856 36.537 12.5653 35.577 11.584C34.617 10.6027 33.401 10.112 31.929 10.112C30.457 10.112 29.241 10.6027 28.281 11.584C27.3423 12.5653 26.873 13.856 26.873 15.456C26.873 17.056 27.3423 18.3467 28.281 19.328C29.241 20.3093 30.457 20.8 31.929 20.8ZM52.554 24.224C50.826 24.224 49.2687 23.8507 47.882 23.104C46.4953 22.3573 45.4073 21.3227 44.618 20C43.85 18.656 43.466 17.1413 43.466 15.456C43.466 13.7707 43.85 12.2667 44.618 10.944C45.4073 9.62133 46.4953 8.58667 47.882 7.84C49.2687 7.09333 50.826 6.72 52.554 6.72C54.3033 6.72 55.8713 7.09333 57.258 7.84C58.6447 8.58667 59.722 9.62133 60.49 10.944C61.2793 12.2667 61.674 13.7707 61.674 15.456C61.674 17.1413 61.2793 18.656 60.49 20C59.722 21.3227 58.6447 22.3573 57.258 23.104C55.8713 23.8507 54.3033 24.224 52.554 24.224ZM52.554 20.8C54.026 20.8 55.242 20.3093 56.202 19.328C57.162 18.3467 57.642 17.056 57.642 15.456C57.642 13.856 57.162 12.5653 56.202 11.584C55.242 10.6027 54.026 10.112 52.554 10.112C51.082 10.112 49.866 10.6027 48.906 11.584C47.9673 12.5653 47.498 13.856 47.498 15.456C47.498 17.056 47.9673 18.3467 48.906 19.328C49.866 20.3093 51.082 20.8 52.554 20.8ZM75.771 23.072C75.3017 23.456 74.7257 23.744 74.043 23.936C73.3817 24.128 72.6777 24.224 71.931 24.224C70.0537 24.224 68.603 23.7333 67.579 22.752C66.555 21.7707 66.043 20.3413 66.043 18.464V10.24H63.227V7.04H66.043V3.136H70.043V7.04H74.619V10.24H70.043V18.368C70.043 19.2 70.2457 19.84 70.651 20.288C71.0563 20.7147 71.643 20.928 72.411 20.928C73.307 20.928 74.0537 20.6933 74.651 20.224L75.771 23.072ZM94.563 15.552C94.563 15.8293 94.5417 16.224 94.499 16.736H81.091C81.3257 17.9947 81.9337 18.9973 82.915 19.744C83.9177 20.4693 85.155 20.832 86.627 20.832C88.5043 20.832 90.051 20.2133 91.267 18.976L93.411 21.44C92.643 22.3573 91.6723 23.0507 90.499 23.52C89.3257 23.9893 88.003 24.224 86.531 24.224C84.6537 24.224 83.0003 23.8507 81.571 23.104C80.1417 22.3573 79.0323 21.3227 78.243 20C77.475 18.656 77.091 17.1413 77.091 15.456C77.091 13.792 77.4643 12.2987 78.211 10.976C78.979 9.632 80.035 8.58667 81.379 7.84C82.723 7.09333 84.2377 6.72 85.923 6.72C87.587 6.72 89.0697 7.09333 90.371 7.84C91.6937 8.56533 92.7177 9.6 93.443 10.944C94.1897 12.2667 94.563 13.8027 94.563 15.552ZM85.923 9.92C84.643 9.92 83.555 10.304 82.659 11.072C81.7843 11.8187 81.251 12.8213 81.059 14.08H90.755C90.5843 12.8427 90.0617 11.84 89.187 11.072C88.3123 10.304 87.2243 9.92 85.923 9.92ZM98.4053 0.255999H102.405V24H98.4053V0.255999ZM112.935 24.224C111.549 24.224 110.194 24.0427 108.871 23.68C107.549 23.3173 106.493 22.8587 105.703 22.304L107.239 19.264C108.007 19.776 108.925 20.192 109.991 20.512C111.079 20.8107 112.146 20.96 113.191 20.96C115.581 20.96 116.775 20.3307 116.775 19.072C116.775 18.4747 116.466 18.0587 115.847 17.824C115.25 17.5893 114.279 17.3653 112.935 17.152C111.527 16.9387 110.375 16.6933 109.479 16.416C108.605 16.1387 107.837 15.6587 107.175 14.976C106.535 14.272 106.215 13.3013 106.215 12.064C106.215 10.4427 106.887 9.152 108.231 8.192C109.597 7.21067 111.431 6.72 113.735 6.72C114.909 6.72 116.082 6.85867 117.255 7.136C118.429 7.392 119.389 7.744 120.135 8.192L118.599 11.232C117.149 10.3787 115.517 9.952 113.703 9.952C112.53 9.952 111.634 10.1333 111.015 10.496C110.418 10.8373 110.119 11.296 110.119 11.872C110.119 12.512 110.439 12.9707 111.079 13.248C111.741 13.504 112.754 13.7493 114.119 13.984C115.485 14.1973 116.605 14.4427 117.479 14.72C118.354 14.9973 119.101 15.4667 119.719 16.128C120.359 16.7893 120.679 17.728 120.679 18.944C120.679 20.544 119.986 21.824 118.599 22.784C117.213 23.744 115.325 24.224 112.935 24.224Z" fill="#192252"/>
<path d="M6.232 22.848L5.74806 23.7232L5.76035 23.7298L6.232 22.848ZM1.944 18.72L1.08095 19.2252L1.08558 19.233L1.944 18.72ZM1.976 6.88L1.11758 6.36704L1.976 6.88ZM6.264 2.784L6.73995 3.66348L6.74357 3.6615L6.264 2.784ZM17.432 2.24L17.0428 3.16115L17.432 2.24ZM21.272 5.024L21.9571 5.75245L22.6537 5.09729L22.0303 4.37211L21.272 5.024ZM18.584 7.552L17.8506 8.23176L18.5353 8.97056L19.2691 8.28045L18.584 7.552ZM8.472 5.952L8.94981 6.83056L8.96153 6.82398L8.472 5.952ZM5.624 8.736L6.49224 9.23214L5.624 8.736ZM5.624 16.864L6.49224 16.3679L5.624 16.864ZM8.472 19.68L7.98242 20.5521L7.99423 20.5585L8.472 19.68ZM18.584 18.016L19.2737 17.2919L18.5352 16.5885L17.8465 17.3407L18.584 18.016ZM21.272 20.576L22.0303 21.2279L22.6498 20.5072L21.9617 19.8519L21.272 20.576ZM17.4 23.36L17.0154 22.4369L17.0108 22.4389L17.4 23.36ZM12.376 23.32C10.2646 23.32 8.38084 22.8633 6.70365 21.9662L5.76035 23.7298C7.75249 24.7953 9.96475 25.32 12.376 25.32V23.32ZM6.71589 21.9729C5.05448 21.0542 3.75552 19.802 2.80242 18.207L1.08558 19.233C2.22315 21.1366 3.78285 22.6365 5.74811 23.7231L6.71589 21.9729ZM2.80701 18.2148C1.88019 16.6315 1.408 14.8352 1.408 12.8H-0.592C-0.592 15.1595 -0.0401945 17.3098 1.08099 19.2252L2.80701 18.2148ZM1.408 12.8C1.408 10.7687 1.88897 8.97512 2.83442 7.39295L1.11758 6.36704C-0.0276407 8.28354 -0.592 10.4367 -0.592 12.8H1.408ZM2.83442 7.39295C3.78639 5.79985 5.08278 4.5603 6.73995 3.66347L5.78805 1.90453C3.81856 2.97037 2.25628 4.46148 1.11758 6.36704L2.83442 7.39295ZM6.74357 3.6615C8.41932 2.74569 10.3002 2.28 12.408 2.28V0.279999C9.99312 0.279999 7.77802 0.816978 5.78443 1.90649L6.74357 3.6615ZM12.408 2.28C14.1245 2.28 15.6648 2.57889 17.0428 3.16115L17.8212 1.31885C16.1699 0.621104 14.3609 0.279999 12.408 0.279999V2.28ZM17.0428 3.16115C18.419 3.74266 19.5716 4.57996 20.5137 5.67589L22.0303 4.37211C20.8818 3.03604 19.4743 2.01734 17.8212 1.31885L17.0428 3.16115ZM20.5869 4.29554L17.8989 6.82355L19.2691 8.28045L21.9571 5.75245L20.5869 4.29554ZM19.3174 6.87224C17.5084 4.9204 15.2487 3.928 12.6 3.928V5.928C14.6873 5.928 16.4169 6.68493 17.8506 8.23176L19.3174 6.87224ZM12.6 3.928C10.9104 3.928 9.36278 4.30511 7.98247 5.08002L8.96153 6.82398C10.0132 6.23356 11.2176 5.928 12.6 5.928V3.928ZM7.99423 5.07352C6.61613 5.82301 5.53114 6.88294 4.75576 8.23986L6.49224 9.23214C7.0822 8.19972 7.89587 7.40366 8.94977 6.83048L7.99423 5.07352ZM4.75576 8.23986C3.97824 9.60052 3.6 11.1293 3.6 12.8H5.6C5.6 11.4414 5.90443 10.2608 6.49224 9.23214L4.75576 8.23986ZM3.6 12.8C3.6 14.4707 3.97824 15.9995 4.75576 17.3601L6.49224 16.3679C5.90443 15.3392 5.6 14.1586 5.6 12.8H3.6ZM4.75576 17.3601C5.52956 18.7143 6.61076 19.7819 7.98247 20.552L8.96153 18.808C7.90124 18.2128 7.08377 17.403 6.49224 16.3679L4.75576 17.3601ZM7.99423 20.5585C9.37241 21.308 10.9158 21.672 12.6 21.672V19.672C11.2122 19.672 10.0036 19.3746 8.94977 18.8015L7.99423 20.5585ZM12.6 21.672C15.2529 21.672 17.5138 20.6656 19.3215 18.6913L17.8465 17.3407C16.4116 18.9077 14.6831 19.672 12.6 19.672V21.672ZM17.8943 18.7401L20.5823 21.3001L21.9617 19.8519L19.2737 17.2919L17.8943 18.7401ZM20.5137 19.9241C19.5739 21.0173 18.413 21.8546 17.0154 22.4369L17.7846 24.2831C19.459 23.5854 20.8794 22.5667 22.0303 21.2279L20.5137 19.9241ZM17.0108 22.4389C15.6328 23.0211 14.0925 23.32 12.376 23.32V25.32C14.3289 25.32 16.1379 24.9789 17.7892 24.2811L17.0108 22.4389ZM27.257 23.104L27.7311 22.2235V22.2235L27.257 23.104ZM23.993 20L23.1248 20.4961L23.1294 20.5043L23.1343 20.5125L23.993 20ZM23.993 10.944L23.1342 10.4315L23.1282 10.4419L23.993 10.944ZM27.257 7.84L27.7311 8.72047L27.257 7.84ZM36.633 7.84L36.1589 8.72047L36.633 7.84ZM39.865 10.944L39.0002 11.4462L39.0063 11.4565L39.865 10.944ZM39.865 20L39.0027 19.4936L39.0002 19.4979L39.865 20ZM36.633 23.104L36.1589 22.2235V22.2235L36.633 23.104ZM35.577 19.328L34.8622 18.6287L35.577 19.328ZM35.577 11.584L34.8622 12.2833V12.2833L35.577 11.584ZM28.281 11.584L27.5661 10.8847L27.5584 10.8928L28.281 11.584ZM28.281 19.328L27.5583 20.0193L27.5662 20.0273L28.281 19.328ZM31.929 23.224C30.35 23.224 28.9582 22.8843 27.7311 22.2235L26.7829 23.9845C28.3291 24.817 30.052 25.224 31.929 25.224V23.224ZM27.7311 22.2235C26.4998 21.5605 25.5463 20.6514 24.8517 19.4875L23.1343 20.5125C24.0184 21.9939 25.2409 23.1542 26.7829 23.9845L27.7311 22.2235ZM24.8612 19.5039C24.1871 18.3242 23.841 16.9832 23.841 15.456H21.841C21.841 17.2995 22.2629 18.9878 23.1248 20.4961L24.8612 19.5039ZM23.841 15.456C23.841 13.9286 24.1872 12.6011 24.8578 11.4461L23.1282 10.4419C22.2628 11.9323 21.841 13.6128 21.841 15.456H23.841ZM24.8517 11.4565C25.5463 10.2926 26.4998 9.38349 27.7311 8.72047L26.7829 6.95953C25.2409 7.78984 24.0184 8.95008 23.1343 10.4315L24.8517 11.4565ZM27.7311 8.72047C28.9582 8.0597 30.35 7.72 31.929 7.72V5.72C30.052 5.72 28.3291 6.12696 26.7829 6.95953L27.7311 8.72047ZM31.929 7.72C33.5315 7.72 34.9335 8.06066 36.1589 8.72047L37.1071 6.95953C35.5591 6.12601 33.8252 5.72 31.929 5.72V7.72ZM36.1589 8.72047C37.388 9.38228 38.3278 10.2882 39.0002 11.4461L40.7298 10.4419C39.8662 8.95449 38.6514 7.79105 37.1071 6.95953L36.1589 8.72047ZM39.0063 11.4565C39.6946 12.6098 40.049 13.9336 40.049 15.456H42.049C42.049 13.6078 41.6141 11.9235 40.7237 10.4315L39.0063 11.4565ZM40.049 15.456C40.049 16.9782 39.6946 18.3155 39.0027 19.4936L40.7273 20.5064C41.6141 18.9965 42.049 17.3044 42.049 15.456H40.049ZM39.0002 19.4979C38.3278 20.6558 37.388 21.5617 36.1589 22.2235L37.1071 23.9845C38.6514 23.1529 39.8662 21.9895 40.7298 20.5021L39.0002 19.4979ZM36.1589 22.2235C34.9335 22.8833 33.5315 23.224 31.929 23.224V25.224C33.8252 25.224 35.5591 24.818 37.1071 23.9845L36.1589 22.2235ZM31.929 21.8C33.6484 21.8 35.1291 21.2158 36.2918 20.0273L34.8622 18.6287C34.1049 19.4028 33.1536 19.8 31.929 19.8V21.8ZM36.2918 20.0273C37.4648 18.8283 38.017 17.2708 38.017 15.456H36.017C36.017 16.8412 35.6092 17.8651 34.8622 18.6287L36.2918 20.0273ZM38.017 15.456C38.017 13.6412 37.4648 12.0837 36.2918 10.8847L34.8622 12.2833C35.6092 13.0469 36.017 14.0708 36.017 15.456H38.017ZM36.2918 10.8847C35.1291 9.69616 33.6484 9.112 31.929 9.112V11.112C33.1536 11.112 34.1049 11.5092 34.8622 12.2833L36.2918 10.8847ZM31.929 9.112C30.2096 9.112 28.7289 9.69616 27.5662 10.8847L28.9958 12.2833C29.7531 11.5092 30.7044 11.112 31.929 11.112V9.112ZM27.5584 10.8928C26.4104 12.0929 25.873 13.6475 25.873 15.456H27.873C27.873 14.0645 28.2742 13.0378 29.0036 12.2752L27.5584 10.8928ZM25.873 15.456C25.873 17.2645 26.4104 18.8191 27.5584 20.0192L29.0036 18.6368C28.2742 17.8742 27.873 16.8475 27.873 15.456H25.873ZM27.5662 20.0273C28.7289 21.2158 30.2096 21.8 31.929 21.8V19.8C30.7044 19.8 29.7531 19.4028 28.9958 18.6287L27.5662 20.0273ZM47.882 23.104L48.3561 22.2235V22.2235L47.882 23.104ZM44.618 20L43.7498 20.4961L43.7544 20.5043L43.7593 20.5125L44.618 20ZM44.618 10.944L43.7592 10.4315L43.7532 10.4419L44.618 10.944ZM47.882 7.84L48.3561 8.72047H48.3561L47.882 7.84ZM57.258 7.84L56.7839 8.72047L57.258 7.84ZM60.49 10.944L59.6252 11.4462L59.6313 11.4565L60.49 10.944ZM60.49 20L59.6277 19.4936L59.6252 19.4979L60.49 20ZM57.258 23.104L56.7839 22.2235V22.2235L57.258 23.104ZM56.202 19.328L55.4872 18.6287L56.202 19.328ZM56.202 11.584L55.4872 12.2833V12.2833L56.202 11.584ZM48.906 11.584L48.1911 10.8847L48.1834 10.8928L48.906 11.584ZM48.906 19.328L48.1833 20.0193L48.1912 20.0273L48.906 19.328ZM52.554 23.224C50.9751 23.224 49.5832 22.8843 48.3561 22.2235L47.4079 23.9845C48.9541 24.817 50.677 25.224 52.554 25.224V23.224ZM48.3561 22.2235C47.1248 21.5605 46.1713 20.6514 45.4767 19.4875L43.7593 20.5125C44.6434 21.9939 45.8659 23.1542 47.4079 23.9845L48.3561 22.2235ZM45.4862 19.5039C44.8121 18.3242 44.466 16.9832 44.466 15.456H42.466C42.466 17.2995 42.8879 18.9878 43.7498 20.4961L45.4862 19.5039ZM44.466 15.456C44.466 13.9286 44.8122 12.6011 45.4828 11.4461L43.7532 10.4419C42.8878 11.9323 42.466 13.6128 42.466 15.456H44.466ZM45.4767 11.4565C46.1713 10.2926 47.1248 9.38349 48.3561 8.72047L47.4079 6.95953C45.8659 7.78984 44.6434 8.95008 43.7593 10.4315L45.4767 11.4565ZM48.3561 8.72047C49.5832 8.0597 50.9751 7.72 52.554 7.72V5.72C50.677 5.72 48.9541 6.12696 47.4079 6.95953L48.3561 8.72047ZM52.554 7.72C54.1565 7.72 55.5585 8.06066 56.7839 8.72047L57.7321 6.95953C56.1841 6.12601 54.4502 5.72 52.554 5.72V7.72ZM56.7839 8.72047C58.013 9.38228 58.9528 10.2882 59.6252 11.4461L61.3548 10.4419C60.4912 8.95449 59.2764 7.79105 57.7321 6.95953L56.7839 8.72047ZM59.6313 11.4565C60.3196 12.6098 60.674 13.9336 60.674 15.456H62.674C62.674 13.6078 62.2391 11.9235 61.3487 10.4315L59.6313 11.4565ZM60.674 15.456C60.674 16.9782 60.3196 18.3155 59.6277 19.4936L61.3523 20.5064C62.2391 18.9965 62.674 17.3044 62.674 15.456H60.674ZM59.6252 19.4979C58.9528 20.6558 58.013 21.5617 56.7839 22.2235L57.7321 23.9845C59.2764 23.1529 60.4912 21.9895 61.3548 20.5021L59.6252 19.4979ZM56.7839 22.2235C55.5585 22.8833 54.1565 23.224 52.554 23.224V25.224C54.4502 25.224 56.1841 24.818 57.7321 23.9845L56.7839 22.2235ZM52.554 21.8C54.2734 21.8 55.7541 21.2158 56.9168 20.0273L55.4872 18.6287C54.7299 19.4028 53.7786 19.8 52.554 19.8V21.8ZM56.9168 20.0273C58.0898 18.8283 58.642 17.2708 58.642 15.456H56.642C56.642 16.8412 56.2342 17.8651 55.4872 18.6287L56.9168 20.0273ZM58.642 15.456C58.642 13.6412 58.0898 12.0837 56.9168 10.8847L55.4872 12.2833C56.2342 13.0469 56.642 14.0708 56.642 15.456H58.642ZM56.9168 10.8847C55.7541 9.69616 54.2734 9.112 52.554 9.112V11.112C53.7786 11.112 54.7299 11.5092 55.4872 12.2833L56.9168 10.8847ZM52.554 9.112C50.8346 9.112 49.3539 9.69616 48.1912 10.8847L49.6208 12.2833C50.3781 11.5092 51.3294 11.112 52.554 11.112V9.112ZM48.1834 10.8928C47.0354 12.0929 46.498 13.6475 46.498 15.456H48.498C48.498 14.0645 48.8992 13.0378 49.6286 12.2752L48.1834 10.8928ZM46.498 15.456C46.498 17.2645 47.0354 18.8191 48.1834 20.0192L49.6286 18.6368C48.8992 17.8742 48.498 16.8475 48.498 15.456H46.498ZM48.1912 20.0273C49.3539 21.2158 50.8346 21.8 52.554 21.8V19.8C51.3294 19.8 50.3781 19.4028 49.6208 18.6287L48.1912 20.0273ZM75.771 23.072L76.4042 23.846L76.9684 23.3844L76.7016 22.706L75.771 23.072ZM74.043 23.936L73.7722 22.9733L73.7642 22.9757L74.043 23.936ZM67.579 22.752L66.8871 23.474L67.579 22.752ZM66.043 10.24H67.043V9.24H66.043V10.24ZM63.227 10.24H62.227V11.24H63.227V10.24ZM63.227 7.04V6.04H62.227V7.04H63.227ZM66.043 7.04V8.04H67.043V7.04H66.043ZM66.043 3.136V2.136H65.043V3.136H66.043ZM70.043 3.136H71.043V2.136H70.043V3.136ZM70.043 7.04H69.043V8.04H70.043V7.04ZM74.619 7.04H75.619V6.04H74.619V7.04ZM74.619 10.24V11.24H75.619V10.24H74.619ZM70.043 10.24V9.24H69.043V10.24H70.043ZM70.651 20.288L69.9095 20.9589L69.9176 20.9679L69.926 20.9767L70.651 20.288ZM74.651 20.224L75.5816 19.858L75.0898 18.6075L74.0332 19.4377L74.651 20.224ZM75.1378 22.298C74.7915 22.5814 74.3446 22.8124 73.7723 22.9733L74.3137 24.8987C75.1067 24.6756 75.8118 24.3306 76.4042 23.846L75.1378 22.298ZM73.7642 22.9757C73.2007 23.1392 72.5912 23.224 71.931 23.224V25.224C72.7641 25.224 73.5626 25.1168 74.3218 24.8963L73.7642 22.9757ZM71.931 23.224C70.2256 23.224 69.0548 22.7812 68.2709 22.03L66.8871 23.474C68.1512 24.6854 69.8817 25.224 71.931 25.224V23.224ZM68.2709 22.03C67.5015 21.2927 67.043 20.1607 67.043 18.464H65.043C65.043 20.5219 65.6085 22.2487 66.8871 23.474L68.2709 22.03ZM67.043 18.464V10.24H65.043V18.464H67.043ZM66.043 9.24H63.227V11.24H66.043V9.24ZM64.227 10.24V7.04H62.227V10.24H64.227ZM63.227 8.04H66.043V6.04H63.227V8.04ZM67.043 7.04V3.136H65.043V7.04H67.043ZM66.043 4.136H70.043V2.136H66.043V4.136ZM69.043 3.136V7.04H71.043V3.136H69.043ZM70.043 8.04H74.619V6.04H70.043V8.04ZM73.619 7.04V10.24H75.619V7.04H73.619ZM74.619 9.24H70.043V11.24H74.619V9.24ZM69.043 10.24V18.368H71.043V10.24H69.043ZM69.043 18.368C69.043 19.3539 69.2839 20.2675 69.9095 20.9589L71.3925 19.6171C71.2074 19.4125 71.043 19.0461 71.043 18.368H69.043ZM69.926 20.9767C70.5731 21.6579 71.4566 21.928 72.411 21.928V19.928C71.8294 19.928 71.5396 19.7715 71.376 19.5993L69.926 20.9767ZM72.411 21.928C73.4892 21.928 74.465 21.6419 75.2688 21.0103L74.0332 19.4377C73.6423 19.7448 73.1248 19.928 72.411 19.928V21.928ZM73.7204 20.59L74.8404 23.438L76.7016 22.706L75.5816 19.858L73.7204 20.59ZM94.499 16.736V17.736H95.4191L95.4955 16.819L94.499 16.736ZM81.091 16.736V15.736H79.8873L80.1079 16.9193L81.091 16.736ZM82.915 19.744L82.3095 20.5398L82.3191 20.5471L82.3289 20.5542L82.915 19.744ZM91.267 18.976L92.0214 18.3196L91.3116 17.5039L90.5538 18.2751L91.267 18.976ZM93.411 21.44L94.1778 22.0819L94.7257 21.4275L94.1654 20.7836L93.411 21.44ZM90.499 23.52L90.1276 22.5915L90.499 23.52ZM81.571 23.104L81.108 23.9903L81.571 23.104ZM78.243 20L77.3748 20.4961L77.3794 20.5043L77.3843 20.5125L78.243 20ZM78.211 10.976L77.3427 10.4799L77.3402 10.4844L78.211 10.976ZM81.379 7.84L81.8646 8.71416L81.8646 8.71416L81.379 7.84ZM90.371 7.84L89.8733 8.70737L89.8817 8.71217L89.8902 8.71681L90.371 7.84ZM93.443 10.944L92.563 11.4189L92.5675 11.4273L92.5722 11.4356L93.443 10.944ZM82.659 11.072L83.3083 11.8326L83.3098 11.8313L82.659 11.072ZM81.059 14.08L80.0704 13.9292L79.8949 15.08H81.059V14.08ZM90.755 14.08V15.08H91.9024L91.7456 13.9434L90.755 14.08ZM89.187 11.072L88.5272 11.8234V11.8234L89.187 11.072ZM93.563 15.552C93.563 15.7875 93.5444 16.1496 93.5025 16.653L95.4955 16.819C95.5389 16.2984 95.563 15.8712 95.563 15.552H93.563ZM94.499 15.736H81.091V17.736H94.499V15.736ZM80.1079 16.9193C80.3862 18.4116 81.1225 19.6367 82.3095 20.5398L83.5205 18.9482C82.7449 18.358 82.2652 17.5777 82.0741 16.5527L80.1079 16.9193ZM82.3289 20.5542C83.5325 21.4249 84.9855 21.832 86.627 21.832V19.832C85.3245 19.832 84.3028 19.5137 83.5011 18.9338L82.3289 20.5542ZM86.627 21.832C88.7482 21.832 90.5598 21.1223 91.9802 19.6769L90.5538 18.2751C89.5422 19.3044 88.2605 19.832 86.627 19.832V21.832ZM90.5126 19.6324L92.6566 22.0964L94.1654 20.7836L92.0214 18.3196L90.5126 19.6324ZM92.6442 20.7981C91.9883 21.5815 91.1564 22.18 90.1276 22.5915L90.8704 24.4485C92.1882 23.9213 93.2977 23.1332 94.1778 22.0819L92.6442 20.7981ZM90.1276 22.5915C89.0902 23.0065 87.8964 23.224 86.531 23.224V25.224C88.1096 25.224 89.5612 24.9722 90.8704 24.4485L90.1276 22.5915ZM86.531 23.224C84.7884 23.224 83.2986 22.8783 82.034 22.2177L81.108 23.9903C82.702 24.8231 84.519 25.224 86.531 25.224V23.224ZM82.034 22.2177C80.7606 21.5524 79.7917 20.6438 79.1017 19.4875L77.3843 20.5125C78.273 22.0016 79.5228 23.1623 81.108 23.9903L82.034 22.2177ZM79.1112 19.5039C78.4371 18.3242 78.091 16.9832 78.091 15.456H76.091C76.091 17.2995 76.5129 18.9878 77.3748 20.4961L79.1112 19.5039ZM78.091 15.456C78.091 13.9474 78.4278 12.6262 79.0818 11.4676L77.3402 10.4844C76.5009 11.9711 76.091 13.6366 76.091 15.456H78.091ZM79.0792 11.4721C79.7573 10.2856 80.6814 9.37149 81.8646 8.71416L80.8934 6.96584C79.3885 7.80185 78.2007 8.97842 77.3428 10.4799L79.0792 11.4721ZM81.8646 8.71416C83.0461 8.05779 84.3909 7.72 85.923 7.72V5.72C84.0845 5.72 82.3999 6.12887 80.8934 6.96584L81.8646 8.71416ZM85.923 7.72C87.4319 7.72 88.7395 8.05683 89.8733 8.70737L90.8687 6.97263C89.3998 6.12984 87.7421 5.72 85.923 5.72V7.72ZM89.8902 8.71681C91.0416 9.34825 91.928 10.2423 92.563 11.4189L94.323 10.4691C93.5073 8.95767 92.3457 7.78242 90.8518 6.96319L89.8902 8.71681ZM92.5722 11.4356C93.2221 12.5868 93.563 13.9485 93.563 15.552H95.563C95.563 13.6569 95.1573 11.9465 94.3138 10.4524L92.5722 11.4356ZM85.923 8.92C84.4261 8.92 83.1013 9.37578 82.0082 10.3127L83.3098 11.8313C84.0087 11.2322 84.8599 10.92 85.923 10.92V8.92ZM82.0097 10.3114C80.9325 11.2311 80.2945 12.4604 80.0704 13.9292L82.0476 14.2308C82.2075 13.1822 82.6362 12.4063 83.3083 11.8326L82.0097 10.3114ZM81.059 15.08H90.755V13.08H81.059V15.08ZM91.7456 13.9434C91.5447 12.4868 90.9158 11.2592 89.8468 10.3206L88.5272 11.8234C89.2075 12.4208 89.6239 13.1985 89.7644 14.2166L91.7456 13.9434ZM89.8468 10.3206C88.7678 9.37317 87.4364 8.92 85.923 8.92V10.92C87.0122 10.92 87.8568 11.2348 88.5272 11.8234L89.8468 10.3206ZM98.4053 0.255999V-0.744001H97.4053V0.255999H98.4053ZM102.405 0.255999H103.405V-0.744001H102.405V0.255999ZM102.405 24V25H103.405V24H102.405ZM98.4053 24H97.4053V25H98.4053V24ZM98.4053 1.256H102.405V-0.744001H98.4053V1.256ZM101.405 0.255999V24H103.405V0.255999H101.405ZM102.405 23H98.4053V25H102.405V23ZM99.4053 24V0.255999H97.4053V24H99.4053ZM108.871 23.68L108.607 24.6444L108.871 23.68ZM105.703 22.304L104.811 21.853L104.421 22.6249L105.128 23.1222L105.703 22.304ZM107.239 19.264L107.794 18.4319L106.855 17.8062L106.347 18.813L107.239 19.264ZM109.991 20.512L109.704 21.4698L109.715 21.4732L109.727 21.4763L109.991 20.512ZM115.847 17.824L115.482 18.7548L115.493 18.759L115.847 17.824ZM112.935 17.152L113.092 16.1643L113.085 16.1633L112.935 17.152ZM109.479 16.416L109.177 17.3693L109.184 17.3713L109.479 16.416ZM107.175 14.976L106.435 15.6487L106.446 15.6604L106.457 15.6718L107.175 14.976ZM108.231 8.192L108.812 9.00574L108.815 9.00401L108.231 8.192ZM117.255 7.136L117.025 8.10918L117.034 8.11117L117.042 8.11302L117.255 7.136ZM120.135 8.192L121.028 8.64297L121.447 7.81296L120.65 7.33451L120.135 8.192ZM118.599 11.232L118.092 12.0939L119.011 12.6344L119.492 11.683L118.599 11.232ZM111.015 10.496L111.511 11.3643L111.521 11.3587L111.015 10.496ZM111.079 13.248L110.682 14.1656L110.7 14.1734L110.718 14.1806L111.079 13.248ZM114.119 13.984L113.95 14.9695L113.957 14.9708L113.965 14.972L114.119 13.984ZM117.479 14.72L117.781 13.7668L117.479 14.72ZM119.719 16.128L118.989 16.8112L118.995 16.8173L119.001 16.8234L119.719 16.128ZM118.599 22.784L118.03 21.9618L118.599 22.784ZM112.935 23.224C111.637 23.224 110.371 23.0544 109.136 22.7156L108.607 24.6444C110.017 25.031 111.46 25.224 112.935 25.224V23.224ZM109.136 22.7156C107.881 22.3716 106.943 21.9527 106.278 21.4858L105.128 23.1222C106.043 23.7647 107.216 24.2631 108.607 24.6444L109.136 22.7156ZM106.596 22.755L108.132 19.715L106.347 18.813L104.811 21.853L106.596 22.755ZM106.685 20.0961C107.55 20.6729 108.561 21.127 109.704 21.4698L110.279 19.5542C109.288 19.257 108.465 18.8791 107.794 18.4319L106.685 20.0961ZM109.727 21.4763C110.894 21.7968 112.05 21.96 113.191 21.96V19.96C112.242 19.96 111.265 19.8245 110.256 19.5477L109.727 21.4763ZM113.191 21.96C114.441 21.96 115.533 21.8009 116.345 21.3727C116.767 21.1509 117.136 20.8445 117.396 20.4327C117.659 20.0171 117.775 19.5513 117.775 19.072H115.775C115.775 19.222 115.742 19.3069 115.706 19.3633C115.668 19.4235 115.589 19.5105 115.413 19.6033C115.031 19.8044 114.331 19.96 113.191 19.96V21.96ZM117.775 19.072C117.775 18.5924 117.648 18.1213 117.346 17.7153C117.05 17.317 116.641 17.0555 116.202 16.889L115.493 18.759C115.672 18.8272 115.728 18.891 115.741 18.9087C115.748 18.9187 115.775 18.9543 115.775 19.072H117.775ZM116.213 16.8932C115.508 16.6164 114.446 16.3794 113.092 16.1644L112.778 18.1396C114.112 18.3513 114.992 18.5623 115.482 18.7548L116.213 16.8932ZM113.085 16.1633C111.704 15.954 110.606 15.7178 109.775 15.4607L109.184 17.3713C110.145 17.6689 111.351 17.9233 112.785 18.1407L113.085 16.1633ZM109.781 15.4628C109.07 15.2373 108.444 14.8484 107.893 14.2802L106.457 15.6718C107.229 16.469 108.139 17.04 109.177 17.3692L109.781 15.4628ZM107.915 14.3033C107.488 13.8333 107.215 13.1294 107.215 12.064H105.215C105.215 13.4733 105.583 14.7107 106.435 15.6487L107.915 14.3033ZM107.215 12.064C107.215 10.7727 107.725 9.78219 108.812 9.00573L107.65 7.37827C106.049 8.5218 105.215 10.1126 105.215 12.064H107.215ZM108.815 9.00401C109.957 8.18279 111.565 7.72 113.735 7.72V5.72C111.298 5.72 109.236 6.23854 107.648 7.37998L108.815 9.00401ZM113.735 7.72C114.829 7.72 115.925 7.84917 117.025 8.10918L117.485 6.16282C116.239 5.86816 114.988 5.72 113.735 5.72V7.72ZM117.042 8.11302C118.146 8.35397 118.995 8.6742 119.621 9.04949L120.65 7.33451C119.782 6.8138 118.711 6.43003 117.468 6.15898L117.042 8.11302ZM119.243 7.74103L117.707 10.781L119.492 11.683L121.028 8.64297L119.243 7.74103ZM119.106 10.3701C117.49 9.41936 115.681 8.952 113.703 8.952V10.952C115.353 10.952 116.807 11.338 118.092 12.0939L119.106 10.3701ZM113.703 8.952C112.453 8.952 111.35 9.14055 110.51 9.6333L111.521 11.3587C111.918 11.1261 112.606 10.952 113.703 10.952V8.952ZM110.519 9.62776C109.682 10.1061 109.119 10.8615 109.119 11.872H111.119C111.119 11.7305 111.154 11.5685 111.511 11.3642L110.519 9.62776ZM109.119 11.872C109.119 12.3661 109.246 12.8476 109.539 13.2682C109.829 13.6831 110.233 13.9713 110.682 14.1656L111.477 12.3304C111.285 12.2474 111.21 12.1676 111.179 12.1238C111.153 12.0858 111.119 12.0179 111.119 11.872H109.119ZM110.718 14.1806C111.475 14.4736 112.568 14.7321 113.95 14.9695L114.289 12.9985C112.939 12.7665 112.006 12.5344 111.44 12.3154L110.718 14.1806ZM113.965 14.972C115.302 15.181 116.368 15.4168 117.177 15.6732L117.781 13.7668C116.841 13.4685 115.667 13.2137 114.274 12.996L113.965 14.972ZM117.177 15.6732C117.89 15.8994 118.489 16.2768 118.989 16.8112L120.45 15.4448C119.712 14.6565 118.817 14.0952 117.781 13.7668L117.177 15.6732ZM119.001 16.8234C119.408 17.2444 119.679 17.9015 119.679 18.944H121.679C121.679 17.5545 121.31 16.3342 120.438 15.4326L119.001 16.8234ZM119.679 18.944C119.679 20.1954 119.164 21.1766 118.03 21.9618L119.168 23.6062C120.808 22.4714 121.679 20.8926 121.679 18.944H119.679ZM118.03 21.9618C116.867 22.7669 115.203 23.224 112.935 23.224V25.224C115.446 25.224 117.558 24.7211 119.168 23.6062L118.03 21.9618Z" fill="black"/>
<path d="M6.232 22.848L5.74806 23.7232L5.76035 23.7298L6.232 22.848ZM1.944 18.72L1.08095 19.2252L1.08558 19.233L1.944 18.72ZM1.976 6.88L1.11758 6.36704L1.976 6.88ZM6.264 2.784L6.73995 3.66348L6.74357 3.6615L6.264 2.784ZM17.432 2.24L17.0428 3.16115L17.432 2.24ZM21.272 5.024L21.9571 5.75245L22.6537 5.09729L22.0303 4.37211L21.272 5.024ZM18.584 7.552L17.8506 8.23176L18.5353 8.97056L19.2691 8.28045L18.584 7.552ZM8.472 5.952L8.94981 6.83056L8.96153 6.82398L8.472 5.952ZM5.624 8.736L6.49224 9.23214L5.624 8.736ZM5.624 16.864L6.49224 16.3679L5.624 16.864ZM8.472 19.68L7.98242 20.5521L7.99423 20.5585L8.472 19.68ZM18.584 18.016L19.2737 17.2919L18.5352 16.5885L17.8465 17.3407L18.584 18.016ZM21.272 20.576L22.0303 21.2279L22.6498 20.5072L21.9617 19.8519L21.272 20.576ZM17.4 23.36L17.0154 22.4369L17.0108 22.4389L17.4 23.36ZM12.376 23.32C10.2646 23.32 8.38084 22.8633 6.70365 21.9662L5.76035 23.7298C7.75249 24.7953 9.96475 25.32 12.376 25.32V23.32ZM6.71589 21.9729C5.05448 21.0542 3.75552 19.802 2.80242 18.207L1.08558 19.233C2.22315 21.1366 3.78285 22.6365 5.74811 23.7231L6.71589 21.9729ZM2.80701 18.2148C1.88019 16.6315 1.408 14.8352 1.408 12.8H-0.592C-0.592 15.1595 -0.0401945 17.3098 1.08099 19.2252L2.80701 18.2148ZM1.408 12.8C1.408 10.7687 1.88897 8.97512 2.83442 7.39295L1.11758 6.36704C-0.0276407 8.28354 -0.592 10.4367 -0.592 12.8H1.408ZM2.83442 7.39295C3.78639 5.79985 5.08278 4.5603 6.73995 3.66347L5.78805 1.90453C3.81856 2.97037 2.25628 4.46148 1.11758 6.36704L2.83442 7.39295ZM6.74357 3.6615C8.41932 2.74569 10.3002 2.28 12.408 2.28V0.279999C9.99312 0.279999 7.77802 0.816978 5.78443 1.90649L6.74357 3.6615ZM12.408 2.28C14.1245 2.28 15.6648 2.57889 17.0428 3.16115L17.8212 1.31885C16.1699 0.621104 14.3609 0.279999 12.408 0.279999V2.28ZM17.0428 3.16115C18.419 3.74266 19.5716 4.57996 20.5137 5.67589L22.0303 4.37211C20.8818 3.03604 19.4743 2.01734 17.8212 1.31885L17.0428 3.16115ZM20.5869 4.29554L17.8989 6.82355L19.2691 8.28045L21.9571 5.75245L20.5869 4.29554ZM19.3174 6.87224C17.5084 4.9204 15.2487 3.928 12.6 3.928V5.928C14.6873 5.928 16.4169 6.68493 17.8506 8.23176L19.3174 6.87224ZM12.6 3.928C10.9104 3.928 9.36278 4.30511 7.98247 5.08002L8.96153 6.82398C10.0132 6.23356 11.2176 5.928 12.6 5.928V3.928ZM7.99423 5.07352C6.61613 5.82301 5.53114 6.88294 4.75576 8.23986L6.49224 9.23214C7.0822 8.19972 7.89587 7.40366 8.94977 6.83048L7.99423 5.07352ZM4.75576 8.23986C3.97824 9.60052 3.6 11.1293 3.6 12.8H5.6C5.6 11.4414 5.90443 10.2608 6.49224 9.23214L4.75576 8.23986ZM3.6 12.8C3.6 14.4707 3.97824 15.9995 4.75576 17.3601L6.49224 16.3679C5.90443 15.3392 5.6 14.1586 5.6 12.8H3.6ZM4.75576 17.3601C5.52956 18.7143 6.61076 19.7819 7.98247 20.552L8.96153 18.808C7.90124 18.2128 7.08377 17.403 6.49224 16.3679L4.75576 17.3601ZM7.99423 20.5585C9.37241 21.308 10.9158 21.672 12.6 21.672V19.672C11.2122 19.672 10.0036 19.3746 8.94977 18.8015L7.99423 20.5585ZM12.6 21.672C15.2529 21.672 17.5138 20.6656 19.3215 18.6913L17.8465 17.3407C16.4116 18.9077 14.6831 19.672 12.6 19.672V21.672ZM17.8943 18.7401L20.5823 21.3001L21.9617 19.8519L19.2737 17.2919L17.8943 18.7401ZM20.5137 19.9241C19.5739 21.0173 18.413 21.8546 17.0154 22.4369L17.7846 24.2831C19.459 23.5854 20.8794 22.5667 22.0303 21.2279L20.5137 19.9241ZM17.0108 22.4389C15.6328 23.0211 14.0925 23.32 12.376 23.32V25.32C14.3289 25.32 16.1379 24.9789 17.7892 24.2811L17.0108 22.4389ZM27.257 23.104L27.7311 22.2235V22.2235L27.257 23.104ZM23.993 20L23.1248 20.4961L23.1294 20.5043L23.1343 20.5125L23.993 20ZM23.993 10.944L23.1342 10.4315L23.1282 10.4419L23.993 10.944ZM27.257 7.84L27.7311 8.72047L27.257 7.84ZM36.633 7.84L36.1589 8.72047L36.633 7.84ZM39.865 10.944L39.0002 11.4462L39.0063 11.4565L39.865 10.944ZM39.865 20L39.0027 19.4936L39.0002 19.4979L39.865 20ZM36.633 23.104L36.1589 22.2235V22.2235L36.633 23.104ZM35.577 19.328L34.8622 18.6287L35.577 19.328ZM35.577 11.584L34.8622 12.2833V12.2833L35.577 11.584ZM28.281 11.584L27.5661 10.8847L27.5584 10.8928L28.281 11.584ZM28.281 19.328L27.5583 20.0193L27.5662 20.0273L28.281 19.328ZM31.929 23.224C30.35 23.224 28.9582 22.8843 27.7311 22.2235L26.7829 23.9845C28.3291 24.817 30.052 25.224 31.929 25.224V23.224ZM27.7311 22.2235C26.4998 21.5605 25.5463 20.6514 24.8517 19.4875L23.1343 20.5125C24.0184 21.9939 25.2409 23.1542 26.7829 23.9845L27.7311 22.2235ZM24.8612 19.5039C24.1871 18.3242 23.841 16.9832 23.841 15.456H21.841C21.841 17.2995 22.2629 18.9878 23.1248 20.4961L24.8612 19.5039ZM23.841 15.456C23.841 13.9286 24.1872 12.6011 24.8578 11.4461L23.1282 10.4419C22.2628 11.9323 21.841 13.6128 21.841 15.456H23.841ZM24.8517 11.4565C25.5463 10.2926 26.4998 9.38349 27.7311 8.72047L26.7829 6.95953C25.2409 7.78984 24.0184 8.95008 23.1343 10.4315L24.8517 11.4565ZM27.7311 8.72047C28.9582 8.0597 30.35 7.72 31.929 7.72V5.72C30.052 5.72 28.3291 6.12696 26.7829 6.95953L27.7311 8.72047ZM31.929 7.72C33.5315 7.72 34.9335 8.06066 36.1589 8.72047L37.1071 6.95953C35.5591 6.12601 33.8252 5.72 31.929 5.72V7.72ZM36.1589 8.72047C37.388 9.38228 38.3278 10.2882 39.0002 11.4461L40.7298 10.4419C39.8662 8.95449 38.6514 7.79105 37.1071 6.95953L36.1589 8.72047ZM39.0063 11.4565C39.6946 12.6098 40.049 13.9336 40.049 15.456H42.049C42.049 13.6078 41.6141 11.9235 40.7237 10.4315L39.0063 11.4565ZM40.049 15.456C40.049 16.9782 39.6946 18.3155 39.0027 19.4936L40.7273 20.5064C41.6141 18.9965 42.049 17.3044 42.049 15.456H40.049ZM39.0002 19.4979C38.3278 20.6558 37.388 21.5617 36.1589 22.2235L37.1071 23.9845C38.6514 23.1529 39.8662 21.9895 40.7298 20.5021L39.0002 19.4979ZM36.1589 22.2235C34.9335 22.8833 33.5315 23.224 31.929 23.224V25.224C33.8252 25.224 35.5591 24.818 37.1071 23.9845L36.1589 22.2235ZM31.929 21.8C33.6484 21.8 35.1291 21.2158 36.2918 20.0273L34.8622 18.6287C34.1049 19.4028 33.1536 19.8 31.929 19.8V21.8ZM36.2918 20.0273C37.4648 18.8283 38.017 17.2708 38.017 15.456H36.017C36.017 16.8412 35.6092 17.8651 34.8622 18.6287L36.2918 20.0273ZM38.017 15.456C38.017 13.6412 37.4648 12.0837 36.2918 10.8847L34.8622 12.2833C35.6092 13.0469 36.017 14.0708 36.017 15.456H38.017ZM36.2918 10.8847C35.1291 9.69616 33.6484 9.112 31.929 9.112V11.112C33.1536 11.112 34.1049 11.5092 34.8622 12.2833L36.2918 10.8847ZM31.929 9.112C30.2096 9.112 28.7289 9.69616 27.5662 10.8847L28.9958 12.2833C29.7531 11.5092 30.7044 11.112 31.929 11.112V9.112ZM27.5584 10.8928C26.4104 12.0929 25.873 13.6475 25.873 15.456H27.873C27.873 14.0645 28.2742 13.0378 29.0036 12.2752L27.5584 10.8928ZM25.873 15.456C25.873 17.2645 26.4104 18.8191 27.5584 20.0192L29.0036 18.6368C28.2742 17.8742 27.873 16.8475 27.873 15.456H25.873ZM27.5662 20.0273C28.7289 21.2158 30.2096 21.8 31.929 21.8V19.8C30.7044 19.8 29.7531 19.4028 28.9958 18.6287L27.5662 20.0273ZM47.882 23.104L48.3561 22.2235V22.2235L47.882 23.104ZM44.618 20L43.7498 20.4961L43.7544 20.5043L43.7593 20.5125L44.618 20ZM44.618 10.944L43.7592 10.4315L43.7532 10.4419L44.618 10.944ZM47.882 7.84L48.3561 8.72047H48.3561L47.882 7.84ZM57.258 7.84L56.7839 8.72047L57.258 7.84ZM60.49 10.944L59.6252 11.4462L59.6313 11.4565L60.49 10.944ZM60.49 20L59.6277 19.4936L59.6252 19.4979L60.49 20ZM57.258 23.104L56.7839 22.2235V22.2235L57.258 23.104ZM56.202 19.328L55.4872 18.6287L56.202 19.328ZM56.202 11.584L55.4872 12.2833V12.2833L56.202 11.584ZM48.906 11.584L48.1911 10.8847L48.1834 10.8928L48.906 11.584ZM48.906 19.328L48.1833 20.0193L48.1912 20.0273L48.906 19.328ZM52.554 23.224C50.9751 23.224 49.5832 22.8843 48.3561 22.2235L47.4079 23.9845C48.9541 24.817 50.677 25.224 52.554 25.224V23.224ZM48.3561 22.2235C47.1248 21.5605 46.1713 20.6514 45.4767 19.4875L43.7593 20.5125C44.6434 21.9939 45.8659 23.1542 47.4079 23.9845L48.3561 22.2235ZM45.4862 19.5039C44.8121 18.3242 44.466 16.9832 44.466 15.456H42.466C42.466 17.2995 42.8879 18.9878 43.7498 20.4961L45.4862 19.5039ZM44.466 15.456C44.466 13.9286 44.8122 12.6011 45.4828 11.4461L43.7532 10.4419C42.8878 11.9323 42.466 13.6128 42.466 15.456H44.466ZM45.4767 11.4565C46.1713 10.2926 47.1248 9.38349 48.3561 8.72047L47.4079 6.95953C45.8659 7.78984 44.6434 8.95008 43.7593 10.4315L45.4767 11.4565ZM48.3561 8.72047C49.5832 8.0597 50.9751 7.72 52.554 7.72V5.72C50.677 5.72 48.9541 6.12696 47.4079 6.95953L48.3561 8.72047ZM52.554 7.72C54.1565 7.72 55.5585 8.06066 56.7839 8.72047L57.7321 6.95953C56.1841 6.12601 54.4502 5.72 52.554 5.72V7.72ZM56.7839 8.72047C58.013 9.38228 58.9528 10.2882 59.6252 11.4461L61.3548 10.4419C60.4912 8.95449 59.2764 7.79105 57.7321 6.95953L56.7839 8.72047ZM59.6313 11.4565C60.3196 12.6098 60.674 13.9336 60.674 15.456H62.674C62.674 13.6078 62.2391 11.9235 61.3487 10.4315L59.6313 11.4565ZM60.674 15.456C60.674 16.9782 60.3196 18.3155 59.6277 19.4936L61.3523 20.5064C62.2391 18.9965 62.674 17.3044 62.674 15.456H60.674ZM59.6252 19.4979C58.9528 20.6558 58.013 21.5617 56.7839 22.2235L57.7321 23.9845C59.2764 23.1529 60.4912 21.9895 61.3548 20.5021L59.6252 19.4979ZM56.7839 22.2235C55.5585 22.8833 54.1565 23.224 52.554 23.224V25.224C54.4502 25.224 56.1841 24.818 57.7321 23.9845L56.7839 22.2235ZM52.554 21.8C54.2734 21.8 55.7541 21.2158 56.9168 20.0273L55.4872 18.6287C54.7299 19.4028 53.7786 19.8 52.554 19.8V21.8ZM56.9168 20.0273C58.0898 18.8283 58.642 17.2708 58.642 15.456H56.642C56.642 16.8412 56.2342 17.8651 55.4872 18.6287L56.9168 20.0273ZM58.642 15.456C58.642 13.6412 58.0898 12.0837 56.9168 10.8847L55.4872 12.2833C56.2342 13.0469 56.642 14.0708 56.642 15.456H58.642ZM56.9168 10.8847C55.7541 9.69616 54.2734 9.112 52.554 9.112V11.112C53.7786 11.112 54.7299 11.5092 55.4872 12.2833L56.9168 10.8847ZM52.554 9.112C50.8346 9.112 49.3539 9.69616 48.1912 10.8847L49.6208 12.2833C50.3781 11.5092 51.3294 11.112 52.554 11.112V9.112ZM48.1834 10.8928C47.0354 12.0929 46.498 13.6475 46.498 15.456H48.498C48.498 14.0645 48.8992 13.0378 49.6286 12.2752L48.1834 10.8928ZM46.498 15.456C46.498 17.2645 47.0354 18.8191 48.1834 20.0192L49.6286 18.6368C48.8992 17.8742 48.498 16.8475 48.498 15.456H46.498ZM48.1912 20.0273C49.3539 21.2158 50.8346 21.8 52.554 21.8V19.8C51.3294 19.8 50.3781 19.4028 49.6208 18.6287L48.1912 20.0273ZM75.771 23.072L76.4042 23.846L76.9684 23.3844L76.7016 22.706L75.771 23.072ZM74.043 23.936L73.7722 22.9733L73.7642 22.9757L74.043 23.936ZM67.579 22.752L66.8871 23.474L67.579 22.752ZM66.043 10.24H67.043V9.24H66.043V10.24ZM63.227 10.24H62.227V11.24H63.227V10.24ZM63.227 7.04V6.04H62.227V7.04H63.227ZM66.043 7.04V8.04H67.043V7.04H66.043ZM66.043 3.136V2.136H65.043V3.136H66.043ZM70.043 3.136H71.043V2.136H70.043V3.136ZM70.043 7.04H69.043V8.04H70.043V7.04ZM74.619 7.04H75.619V6.04H74.619V7.04ZM74.619 10.24V11.24H75.619V10.24H74.619ZM70.043 10.24V9.24H69.043V10.24H70.043ZM70.651 20.288L69.9095 20.9589L69.9176 20.9679L69.926 20.9767L70.651 20.288ZM74.651 20.224L75.5816 19.858L75.0898 18.6075L74.0332 19.4377L74.651 20.224ZM75.1378 22.298C74.7915 22.5814 74.3446 22.8124 73.7723 22.9733L74.3137 24.8987C75.1067 24.6756 75.8118 24.3306 76.4042 23.846L75.1378 22.298ZM73.7642 22.9757C73.2007 23.1392 72.5912 23.224 71.931 23.224V25.224C72.7641 25.224 73.5626 25.1168 74.3218 24.8963L73.7642 22.9757ZM71.931 23.224C70.2256 23.224 69.0548 22.7812 68.2709 22.03L66.8871 23.474C68.1512 24.6854 69.8817 25.224 71.931 25.224V23.224ZM68.2709 22.03C67.5015 21.2927 67.043 20.1607 67.043 18.464H65.043C65.043 20.5219 65.6085 22.2487 66.8871 23.474L68.2709 22.03ZM67.043 18.464V10.24H65.043V18.464H67.043ZM66.043 9.24H63.227V11.24H66.043V9.24ZM64.227 10.24V7.04H62.227V10.24H64.227ZM63.227 8.04H66.043V6.04H63.227V8.04ZM67.043 7.04V3.136H65.043V7.04H67.043ZM66.043 4.136H70.043V2.136H66.043V4.136ZM69.043 3.136V7.04H71.043V3.136H69.043ZM70.043 8.04H74.619V6.04H70.043V8.04ZM73.619 7.04V10.24H75.619V7.04H73.619ZM74.619 9.24H70.043V11.24H74.619V9.24ZM69.043 10.24V18.368H71.043V10.24H69.043ZM69.043 18.368C69.043 19.3539 69.2839 20.2675 69.9095 20.9589L71.3925 19.6171C71.2074 19.4125 71.043 19.0461 71.043 18.368H69.043ZM69.926 20.9767C70.5731 21.6579 71.4566 21.928 72.411 21.928V19.928C71.8294 19.928 71.5396 19.7715 71.376 19.5993L69.926 20.9767ZM72.411 21.928C73.4892 21.928 74.465 21.6419 75.2688 21.0103L74.0332 19.4377C73.6423 19.7448 73.1248 19.928 72.411 19.928V21.928ZM73.7204 20.59L74.8404 23.438L76.7016 22.706L75.5816 19.858L73.7204 20.59ZM94.499 16.736V17.736H95.4191L95.4955 16.819L94.499 16.736ZM81.091 16.736V15.736H79.8873L80.1079 16.9193L81.091 16.736ZM82.915 19.744L82.3095 20.5398L82.3191 20.5471L82.3289 20.5542L82.915 19.744ZM91.267 18.976L92.0214 18.3196L91.3116 17.5039L90.5538 18.2751L91.267 18.976ZM93.411 21.44L94.1778 22.0819L94.7257 21.4275L94.1654 20.7836L93.411 21.44ZM90.499 23.52L90.1276 22.5915L90.499 23.52ZM81.571 23.104L81.108 23.9903L81.571 23.104ZM78.243 20L77.3748 20.4961L77.3794 20.5043L77.3843 20.5125L78.243 20ZM78.211 10.976L77.3427 10.4799L77.3402 10.4844L78.211 10.976ZM81.379 7.84L81.8646 8.71416L81.8646 8.71416L81.379 7.84ZM90.371 7.84L89.8733 8.70737L89.8817 8.71217L89.8902 8.71681L90.371 7.84ZM93.443 10.944L92.563 11.4189L92.5675 11.4273L92.5722 11.4356L93.443 10.944ZM82.659 11.072L83.3083 11.8326L83.3098 11.8313L82.659 11.072ZM81.059 14.08L80.0704 13.9292L79.8949 15.08H81.059V14.08ZM90.755 14.08V15.08H91.9024L91.7456 13.9434L90.755 14.08ZM89.187 11.072L88.5272 11.8234V11.8234L89.187 11.072ZM93.563 15.552C93.563 15.7875 93.5444 16.1496 93.5025 16.653L95.4955 16.819C95.5389 16.2984 95.563 15.8712 95.563 15.552H93.563ZM94.499 15.736H81.091V17.736H94.499V15.736ZM80.1079 16.9193C80.3862 18.4116 81.1225 19.6367 82.3095 20.5398L83.5205 18.9482C82.7449 18.358 82.2652 17.5777 82.0741 16.5527L80.1079 16.9193ZM82.3289 20.5542C83.5325 21.4249 84.9855 21.832 86.627 21.832V19.832C85.3245 19.832 84.3028 19.5137 83.5011 18.9338L82.3289 20.5542ZM86.627 21.832C88.7482 21.832 90.5598 21.1223 91.9802 19.6769L90.5538 18.2751C89.5422 19.3044 88.2605 19.832 86.627 19.832V21.832ZM90.5126 19.6324L92.6566 22.0964L94.1654 20.7836L92.0214 18.3196L90.5126 19.6324ZM92.6442 20.7981C91.9883 21.5815 91.1564 22.18 90.1276 22.5915L90.8704 24.4485C92.1882 23.9213 93.2977 23.1332 94.1778 22.0819L92.6442 20.7981ZM90.1276 22.5915C89.0902 23.0065 87.8964 23.224 86.531 23.224V25.224C88.1096 25.224 89.5612 24.9722 90.8704 24.4485L90.1276 22.5915ZM86.531 23.224C84.7884 23.224 83.2986 22.8783 82.034 22.2177L81.108 23.9903C82.702 24.8231 84.519 25.224 86.531 25.224V23.224ZM82.034 22.2177C80.7606 21.5524 79.7917 20.6438 79.1017 19.4875L77.3843 20.5125C78.273 22.0016 79.5228 23.1623 81.108 23.9903L82.034 22.2177ZM79.1112 19.5039C78.4371 18.3242 78.091 16.9832 78.091 15.456H76.091C76.091 17.2995 76.5129 18.9878 77.3748 20.4961L79.1112 19.5039ZM78.091 15.456C78.091 13.9474 78.4278 12.6262 79.0818 11.4676L77.3402 10.4844C76.5009 11.9711 76.091 13.6366 76.091 15.456H78.091ZM79.0792 11.4721C79.7573 10.2856 80.6814 9.37149 81.8646 8.71416L80.8934 6.96584C79.3885 7.80185 78.2007 8.97842 77.3428 10.4799L79.0792 11.4721ZM81.8646 8.71416C83.0461 8.05779 84.3909 7.72 85.923 7.72V5.72C84.0845 5.72 82.3999 6.12887 80.8934 6.96584L81.8646 8.71416ZM85.923 7.72C87.4319 7.72 88.7395 8.05683 89.8733 8.70737L90.8687 6.97263C89.3998 6.12984 87.7421 5.72 85.923 5.72V7.72ZM89.8902 8.71681C91.0416 9.34825 91.928 10.2423 92.563 11.4189L94.323 10.4691C93.5073 8.95767 92.3457 7.78242 90.8518 6.96319L89.8902 8.71681ZM92.5722 11.4356C93.2221 12.5868 93.563 13.9485 93.563 15.552H95.563C95.563 13.6569 95.1573 11.9465 94.3138 10.4524L92.5722 11.4356ZM85.923 8.92C84.4261 8.92 83.1013 9.37578 82.0082 10.3127L83.3098 11.8313C84.0087 11.2322 84.8599 10.92 85.923 10.92V8.92ZM82.0097 10.3114C80.9325 11.2311 80.2945 12.4604 80.0704 13.9292L82.0476 14.2308C82.2075 13.1822 82.6362 12.4063 83.3083 11.8326L82.0097 10.3114ZM81.059 15.08H90.755V13.08H81.059V15.08ZM91.7456 13.9434C91.5447 12.4868 90.9158 11.2592 89.8468 10.3206L88.5272 11.8234C89.2075 12.4208 89.6239 13.1985 89.7644 14.2166L91.7456 13.9434ZM89.8468 10.3206C88.7678 9.37317 87.4364 8.92 85.923 8.92V10.92C87.0122 10.92 87.8568 11.2348 88.5272 11.8234L89.8468 10.3206ZM98.4053 0.255999V-0.744001H97.4053V0.255999H98.4053ZM102.405 0.255999H103.405V-0.744001H102.405V0.255999ZM102.405 24V25H103.405V24H102.405ZM98.4053 24H97.4053V25H98.4053V24ZM98.4053 1.256H102.405V-0.744001H98.4053V1.256ZM101.405 0.255999V24H103.405V0.255999H101.405ZM102.405 23H98.4053V25H102.405V23ZM99.4053 24V0.255999H97.4053V24H99.4053ZM108.871 23.68L108.607 24.6444L108.871 23.68ZM105.703 22.304L104.811 21.853L104.421 22.6249L105.128 23.1222L105.703 22.304ZM107.239 19.264L107.794 18.4319L106.855 17.8062L106.347 18.813L107.239 19.264ZM109.991 20.512L109.704 21.4698L109.715 21.4732L109.727 21.4763L109.991 20.512ZM115.847 17.824L115.482 18.7548L115.493 18.759L115.847 17.824ZM112.935 17.152L113.092 16.1643L113.085 16.1633L112.935 17.152ZM109.479 16.416L109.177 17.3693L109.184 17.3713L109.479 16.416ZM107.175 14.976L106.435 15.6487L106.446 15.6604L106.457 15.6718L107.175 14.976ZM108.231 8.192L108.812 9.00574L108.815 9.00401L108.231 8.192ZM117.255 7.136L117.025 8.10918L117.034 8.11117L117.042 8.11302L117.255 7.136ZM120.135 8.192L121.028 8.64297L121.447 7.81296L120.65 7.33451L120.135 8.192ZM118.599 11.232L118.092 12.0939L119.011 12.6344L119.492 11.683L118.599 11.232ZM111.015 10.496L111.511 11.3643L111.521 11.3587L111.015 10.496ZM111.079 13.248L110.682 14.1656L110.7 14.1734L110.718 14.1806L111.079 13.248ZM114.119 13.984L113.95 14.9695L113.957 14.9708L113.965 14.972L114.119 13.984ZM117.479 14.72L117.781 13.7668L117.479 14.72ZM119.719 16.128L118.989 16.8112L118.995 16.8173L119.001 16.8234L119.719 16.128ZM118.599 22.784L118.03 21.9618L118.599 22.784ZM112.935 23.224C111.637 23.224 110.371 23.0544 109.136 22.7156L108.607 24.6444C110.017 25.031 111.46 25.224 112.935 25.224V23.224ZM109.136 22.7156C107.881 22.3716 106.943 21.9527 106.278 21.4858L105.128 23.1222C106.043 23.7647 107.216 24.2631 108.607 24.6444L109.136 22.7156ZM106.596 22.755L108.132 19.715L106.347 18.813L104.811 21.853L106.596 22.755ZM106.685 20.0961C107.55 20.6729 108.561 21.127 109.704 21.4698L110.279 19.5542C109.288 19.257 108.465 18.8791 107.794 18.4319L106.685 20.0961ZM109.727 21.4763C110.894 21.7968 112.05 21.96 113.191 21.96V19.96C112.242 19.96 111.265 19.8245 110.256 19.5477L109.727 21.4763ZM113.191 21.96C114.441 21.96 115.533 21.8009 116.345 21.3727C116.767 21.1509 117.136 20.8445 117.396 20.4327C117.659 20.0171 117.775 19.5513 117.775 19.072H115.775C115.775 19.222 115.742 19.3069 115.706 19.3633C115.668 19.4235 115.589 19.5105 115.413 19.6033C115.031 19.8044 114.331 19.96 113.191 19.96V21.96ZM117.775 19.072C117.775 18.5924 117.648 18.1213 117.346 17.7153C117.05 17.317 116.641 17.0555 116.202 16.889L115.493 18.759C115.672 18.8272 115.728 18.891 115.741 18.9087C115.748 18.9187 115.775 18.9543 115.775 19.072H117.775ZM116.213 16.8932C115.508 16.6164 114.446 16.3794 113.092 16.1644L112.778 18.1396C114.112 18.3513 114.992 18.5623 115.482 18.7548L116.213 16.8932ZM113.085 16.1633C111.704 15.954 110.606 15.7178 109.775 15.4607L109.184 17.3713C110.145 17.6689 111.351 17.9233 112.785 18.1407L113.085 16.1633ZM109.781 15.4628C109.07 15.2373 108.444 14.8484 107.893 14.2802L106.457 15.6718C107.229 16.469 108.139 17.04 109.177 17.3692L109.781 15.4628ZM107.915 14.3033C107.488 13.8333 107.215 13.1294 107.215 12.064H105.215C105.215 13.4733 105.583 14.7107 106.435 15.6487L107.915 14.3033ZM107.215 12.064C107.215 10.7727 107.725 9.78219 108.812 9.00573L107.65 7.37827C106.049 8.5218 105.215 10.1126 105.215 12.064H107.215ZM108.815 9.00401C109.957 8.18279 111.565 7.72 113.735 7.72V5.72C111.298 5.72 109.236 6.23854 107.648 7.37998L108.815 9.00401ZM113.735 7.72C114.829 7.72 115.925 7.84917 117.025 8.10918L117.485 6.16282C116.239 5.86816 114.988 5.72 113.735 5.72V7.72ZM117.042 8.11302C118.146 8.35397 118.995 8.6742 119.621 9.04949L120.65 7.33451C119.782 6.8138 118.711 6.43003 117.468 6.15898L117.042 8.11302ZM119.243 7.74103L117.707 10.781L119.492 11.683L121.028 8.64297L119.243 7.74103ZM119.106 10.3701C117.49 9.41936 115.681 8.952 113.703 8.952V10.952C115.353 10.952 116.807 11.338 118.092 12.0939L119.106 10.3701ZM113.703 8.952C112.453 8.952 111.35 9.14055 110.51 9.6333L111.521 11.3587C111.918 11.1261 112.606 10.952 113.703 10.952V8.952ZM110.519 9.62776C109.682 10.1061 109.119 10.8615 109.119 11.872H111.119C111.119 11.7305 111.154 11.5685 111.511 11.3642L110.519 9.62776ZM109.119 11.872C109.119 12.3661 109.246 12.8476 109.539 13.2682C109.829 13.6831 110.233 13.9713 110.682 14.1656L111.477 12.3304C111.285 12.2474 111.21 12.1676 111.179 12.1238C111.153 12.0858 111.119 12.0179 111.119 11.872H109.119ZM110.718 14.1806C111.475 14.4736 112.568 14.7321 113.95 14.9695L114.289 12.9985C112.939 12.7665 112.006 12.5344 111.44 12.3154L110.718 14.1806ZM113.965 14.972C115.302 15.181 116.368 15.4168 117.177 15.6732L117.781 13.7668C116.841 13.4685 115.667 13.2137 114.274 12.996L113.965 14.972ZM117.177 15.6732C117.89 15.8994 118.489 16.2768 118.989 16.8112L120.45 15.4448C119.712 14.6565 118.817 14.0952 117.781 13.7668L117.177 15.6732ZM119.001 16.8234C119.408 17.2444 119.679 17.9015 119.679 18.944H121.679C121.679 17.5545 121.31 16.3342 120.438 15.4326L119.001 16.8234ZM119.679 18.944C119.679 20.1954 119.164 21.1766 118.03 21.9618L119.168 23.6062C120.808 22.4714 121.679 20.8926 121.679 18.944H119.679ZM118.03 21.9618C116.867 22.7669 115.203 23.224 112.935 23.224V25.224C115.446 25.224 117.558 24.7211 119.168 23.6062L118.03 21.9618Z" fill="black" fill-opacity="0.2"/>
</svg>
